<?xml version="1.0" encoding="UTF-8" standalone="no"?>
<!DOCTYPE svg PUBLIC "-//W3C//DTD SVG 1.1//EN"
 "http://www.w3.org/Graphics/SVG/1.1/DTD/svg11.dtd">
<!-- Generated by graphviz version 2.40.1 (20161225.0304)
 -->
<!-- Title: dependencies Pages: 1 -->
<svg width="546pt" height="211pt"
 viewBox="0.00 0.00 546.00 211.00" xmlns="http://www.w3.org/2000/svg" xmlns:xlink="http://www.w3.org/1999/xlink">
<g id="graph0" class="graph" transform="scale(1 1) rotate(0) translate(4 207)">
<title>dependencies</title>
<polygon fill="#ffffff" stroke="transparent" points="-4,4 -4,-207 542,-207 542,4 -4,4"/>
<text text-anchor="start" x="248.0091" y="-42.4" font-family="sans-serif" font-weight="bold" font-size="14.00" fill="#000000">Legend</text>
<polygon fill="#ffffb3" stroke="transparent" points="35,-10 35,-30 55,-30 55,-10 35,-10"/>
<text text-anchor="start" x="58.629" y="-15.4" font-family="sans-serif" font-size="14.00" fill="#000000"> &#160;Declarations</text>
<polygon fill="#8dd3c7" stroke="transparent" points="148,-10 148,-30 168,-30 168,-10 148,-10"/>
<text text-anchor="start" x="171.7251" y="-15.4" font-family="sans-serif" font-size="14.00" fill="#000000"> &#160;Module</text>
<polygon fill="#80b1d3" stroke="transparent" points="234,-10 234,-30 254,-30 254,-10 234,-10"/>
<text text-anchor="start" x="257.7812" y="-15.4" font-family="sans-serif" font-size="14.00" fill="#000000"> &#160;Bootstrap</text>
<polygon fill="#fdb462" stroke="transparent" points="331,-10 331,-30 351,-30 351,-10 331,-10"/>
<text text-anchor="start" x="354.6732" y="-15.4" font-family="sans-serif" font-size="14.00" fill="#000000"> &#160;Providers</text>
<polygon fill="#fb8072" stroke="transparent" points="427,-10 427,-30 447,-30 447,-10 427,-10"/>
<text text-anchor="start" x="450.7258" y="-15.4" font-family="sans-serif" font-size="14.00" fill="#000000"> &#160;Exports</text>
<g id="clust1" class="cluster">
<title>cluster_DepartamentoModule</title>
<polygon fill="none" stroke="#000000" stroke-dasharray="1,5" points="8,-70 8,-195 530,-195 530,-70 8,-70"/>
</g>
<g id="clust2" class="cluster">
<title>cluster_DepartamentoModule_declarations</title>
<polygon fill="none" stroke="#000000" points="346,-78 346,-130 522,-130 522,-78 346,-78"/>
</g>
<g id="clust4" class="cluster">
<title>cluster_DepartamentoModule_imports</title>
<polygon fill="none" stroke="#000000" points="16,-78 16,-130 338,-130 338,-78 16,-78"/>
</g>
<!-- DepartamentoComponent -->
<g id="node1" class="node">
<title>DepartamentoComponent</title>
<polygon fill="#ffffb3" stroke="#000000" points="514.1302,-122 353.8698,-122 353.8698,-86 514.1302,-86 514.1302,-122"/>
<text text-anchor="middle" x="434" y="-99.8" font-family="Times,serif" font-size="14.00" fill="#000000">DepartamentoComponent</text>
</g>
<!-- DepartamentoModule -->
<g id="node2" class="node">
<title>DepartamentoModule</title>
<polygon fill="#8dd3c7" stroke="#000000" points="347.3473,-187 344.3473,-191 323.3473,-191 320.3473,-187 208.6527,-187 208.6527,-151 347.3473,-151 347.3473,-187"/>
<text text-anchor="middle" x="278" y="-164.8" font-family="Times,serif" font-size="14.00" fill="#000000">DepartamentoModule</text>
</g>
<!-- DepartamentoComponent&#45;&gt;DepartamentoModule -->
<g id="edge1" class="edge">
<title>DepartamentoComponent&#45;&gt;DepartamentoModule</title>
<path fill="none" stroke="#000000" d="M353.7414,-104C344.8238,-104 338.8787,-104 338.8787,-104 338.8787,-104 338.8787,-140.8939 338.8787,-140.8939"/>
<polygon fill="#000000" stroke="#000000" points="335.3788,-140.8938 338.8787,-150.8939 342.3788,-140.8939 335.3788,-140.8938"/>
</g>
<!-- ComumModule -->
<g id="node3" class="node">
<title>ComumModule</title>
<polygon fill="#8dd3c7" stroke="#000000" points="330.1681,-122 327.1681,-126 306.1681,-126 303.1681,-122 225.8319,-122 225.8319,-86 330.1681,-86 330.1681,-122"/>
<text text-anchor="middle" x="278" y="-99.8" font-family="Times,serif" font-size="14.00" fill="#000000">ComumModule</text>
</g>
<!-- ComumModule&#45;&gt;DepartamentoModule -->
<g id="edge2" class="edge">
<title>ComumModule&#45;&gt;DepartamentoModule</title>
<path fill="none" stroke="#000000" d="M278,-122.1061C278,-122.1061 278,-140.991 278,-140.991"/>
<polygon fill="#000000" stroke="#000000" points="274.5001,-140.9909 278,-150.991 281.5001,-140.991 274.5001,-140.9909"/>
</g>
<!-- DepartamentoRoutingModule -->
<g id="node4" class="node">
<title>DepartamentoRoutingModule</title>
<polygon fill="#8dd3c7" stroke="#000000" points="207.965,-122 204.965,-126 183.965,-126 180.965,-122 24.035,-122 24.035,-86 207.965,-86 207.965,-122"/>
<text text-anchor="middle" x="116" y="-99.8" font-family="Times,serif" font-size="14.00" fill="#000000">DepartamentoRoutingModule</text>
</g>
<!-- DepartamentoRoutingModule&#45;&gt;DepartamentoModule -->
<g id="edge3" class="edge">
<title>DepartamentoRoutingModule&#45;&gt;DepartamentoModule</title>
<path fill="none" stroke="#000000" d="M208.1475,-104C213.7128,-104 217.1213,-104 217.1213,-104 217.1213,-104 217.1213,-140.8939 217.1213,-140.8939"/>
<polygon fill="#000000" stroke="#000000" points="213.6214,-140.8938 217.1213,-150.8939 220.6214,-140.8939 213.6214,-140.8938"/>
</g>
</g>
</svg>
